<?xml version="1.0" encoding="UTF-8" standalone="no"?>
<svg
   width="22"
   height="22"
   viewBox="0 0 22 22"
   fill="none"
   version="1.1"
   id="svg2"
   sodipodi:docname="network-wired.svg"
   inkscape:version="1.3.2 (091e20ef0f, 2023-11-25, custom)"
   xmlns:inkscape="http://www.inkscape.org/namespaces/inkscape"
   xmlns:sodipodi="http://sodipodi.sourceforge.net/DTD/sodipodi-0.dtd"
   xmlns="http://www.w3.org/2000/svg"
   xmlns:svg="http://www.w3.org/2000/svg">
  <sodipodi:namedview
     id="namedview2"
     pagecolor="#505050"
     bordercolor="#ffffff"
     borderopacity="1"
     inkscape:showpageshadow="0"
     inkscape:pageopacity="0"
     inkscape:pagecheckerboard="1"
     inkscape:deskcolor="#505050"
     inkscape:zoom="18.413044"
     inkscape:cx="8.0649351"
     inkscape:cy="17.216057"
     inkscape:current-layer="svg2" />
  <defs
     id="defs2">
    <linearGradient
       id="paint0_linear_451_1614"
       x1="5.8717899"
       y1="19.214199"
       x2="21.4121"
       y2="9.5892153"
       gradientUnits="userSpaceOnUse">
      <stop
         id="stop1"
         offset="0"
         style="stop-color:#b900ff;stop-opacity:1;" />
      <stop
         offset="1"
         id="stop2"
         style="stop-color:#6444ff;stop-opacity:1;" />
    </linearGradient>
  </defs>
  <g
     id="g1">
    <path
       d="M 20.6602,2.92188 H 2.91406 c -0.41533,0 -0.75195,0.33661 -0.75195,0.75195 V 15.5046 c 0,0.1994 0.07916,0.3907 0.22015,0.5316 l 2.95773,2.9577 c 0.14099,0.1411 0.33236,0.2203 0.5318,0.2203 H 17.7024 c 0.1994,0 0.391,-0.0792 0.5317,-0.2203 l 2.9578,-2.9577 c 0.1411,-0.1409 0.2202,-0.3322 0.2202,-0.5316 V 3.67383 c 0,-0.41534 -0.3365,-0.75195 -0.7519,-0.75195 z m -0.752,12.27122 -2.5171,2.5172 H 6.18314 L 3.66602,15.1931 V 4.42578 H 19.9082 Z M 6.81879,16.0362 c 0.14112,0.1411 0.33235,0.2204 0.5318,0.2204 h 8.87301 c 0.1995,0 0.3907,-0.0793 0.5318,-0.2204 l 1.4787,-1.4787 c 0.1412,-0.141 0.2202,-0.3324 0.2202,-0.5317 V 6.63156 c 0,-0.41534 -0.3365,-0.75196 -0.7519,-0.75196 H 5.87179 c -0.41534,0 -0.75195,0.33662 -0.75195,0.75196 v 7.39424 c 0,0.1993 0.07916,0.3907 0.22015,0.5317 z M 6.62374,7.38351 H 16.9505 v 6.33079 l -1.0384,1.0384 H 7.66209 L 6.62374,13.7143 Z M 11.0352,11.0681 V 9.58928 c 0,-0.41531 0.3366,-0.75195 0.7519,-0.75195 0.4153,0 0.752,0.33664 0.752,0.75195 v 1.47882 c 0,0.4153 -0.3367,0.7519 -0.752,0.7519 -0.4153,0 -0.7519,-0.3366 -0.7519,-0.7519 z m 2.9577,0 V 9.58928 c 0,-0.41531 0.3366,-0.75195 0.7519,-0.75195 0.4154,0 0.752,0.33664 0.752,0.75195 v 1.47882 c 0,0.4153 -0.3366,0.7519 -0.752,0.7519 -0.4153,0 -0.7519,-0.3366 -0.7519,-0.7519 z m -5.91547,0 V 9.58928 c 0,-0.41531 0.33662,-0.75195 0.75195,-0.75195 0.41534,0 0.75195,0.33664 0.75195,0.75195 v 1.47882 c 0,0.4153 -0.33661,0.7519 -0.75195,0.7519 -0.41533,0 -0.75195,-0.3366 -0.75195,-0.7519 z"
       fill="url(#paint0_linear_451_1614)"
       id="path1"
       style="fill:url(#paint0_linear_451_1614)" />
    <rect
       style="fill:none;stroke:none;stroke-width:30.3137;paint-order:stroke fill markers"
       id="rect1"
       width="22"
       height="22"
       x="0"
       y="0" />
  </g>
</svg>
