<?xml version="1.0" encoding="UTF-8" standalone="no"?>
<svg
   width="22"
   height="22"
   version="1.1"
   id="svg1"
   sodipodi:docname="network-offline.svg"
   inkscape:version="1.4 (e7c3feb100, 2024-10-09)"
   xmlns:inkscape="http://www.inkscape.org/namespaces/inkscape"
   xmlns:sodipodi="http://sodipodi.sourceforge.net/DTD/sodipodi-0.dtd"
   xmlns:xlink="http://www.w3.org/1999/xlink"
   xmlns="http://www.w3.org/2000/svg"
   xmlns:svg="http://www.w3.org/2000/svg">
  <defs
     id="defs1">
    <linearGradient
       id="linearGradient5"
       inkscape:collect="always">
      <stop
         style="stop-color:#ff69ff;stop-opacity:1;"
         offset="0"
         id="stop5" />
      <stop
         style="stop-color:#9033dd;stop-opacity:1;"
         offset="1"
         id="stop6" />
    </linearGradient>
    <linearGradient
       id="linearGradient3"
       inkscape:collect="always">
      <stop
         style="stop-color:#ff69ff;stop-opacity:1;"
         offset="0"
         id="stop3" />
      <stop
         style="stop-color:#9033dd;stop-opacity:1;"
         offset="1"
         id="stop4" />
    </linearGradient>
    <linearGradient
       id="linearGradient1"
       inkscape:collect="always">
      <stop
         style="stop-color:#ff69ff;stop-opacity:1;"
         offset="0"
         id="stop1" />
      <stop
         style="stop-color:#9033dd;stop-opacity:1;"
         offset="1"
         id="stop2" />
    </linearGradient>
    <linearGradient
       inkscape:collect="always"
       xlink:href="#linearGradient1"
       id="linearGradient2"
       x1="-11.00001"
       y1="64.875984"
       x2="-1.1730022"
       y2="53.967991"
       gradientUnits="userSpaceOnUse" />
    <linearGradient
       inkscape:collect="always"
       xlink:href="#linearGradient3"
       id="linearGradient4"
       x1="10.99999"
       y1="20.875986"
       x2="20.769331"
       y2="10.083328"
       gradientUnits="userSpaceOnUse" />
    <linearGradient
       inkscape:collect="always"
       xlink:href="#linearGradient5"
       id="linearGradient6"
       x1="10.99999"
       y1="20.875986"
       x2="20.769331"
       y2="10.025661"
       gradientUnits="userSpaceOnUse" />
  </defs>
  <sodipodi:namedview
     id="namedview1"
     pagecolor="#505050"
     bordercolor="#ffffff"
     borderopacity="1"
     inkscape:showpageshadow="0"
     inkscape:pageopacity="0"
     inkscape:pagecheckerboard="1"
     inkscape:deskcolor="#505050"
     inkscape:zoom="34.681818"
     inkscape:cx="8.7798166"
     inkscape:cy="11.475754"
     inkscape:current-layer="network-wireless-100-locked" />
  <style
     type="text/css"
     id="current-color-scheme">.ColorScheme-Text{color:#dddddd;}.ColorScheme-Background{color:#1a1a1a;}.ColorScheme-Highlight{color:#aaaaac30;}.ColorScheme-ViewText{color:#dddddd;}.ColorScheme-ViewBackground{color:#1a1a1a01;}.ColorScheme-ViewHover{color:#aaaaac30;}.ColorScheme-ViewFocus{color:#aaaaac30;}.ColorScheme-ButtonText{color:#bbbbbb;}.ColorScheme-ButtonBackground{color:#aaaaac20;}.ColorScheme-ButtonHover{color:#aaaaac30;}.ColorScheme-ButtonFocus{color:#aaaaac30;}.ColorScheme-NegativeText { color: #8500ff; } </style>
  <g
     transform="translate(0,20) translate(22,-64)"
     id="network-wireless-100-locked">
    <rect
       style="opacity:0.55;fill:none;fill-opacity:1;stroke:none;stroke-width:3.56737041px;stroke-linecap:butt;stroke-linejoin:miter;stroke-miterlimit:4;stroke-dasharray:none;stroke-dashoffset:0;stroke-opacity:1"
       id="rect4330"
       width="22"
       height="22"
       x="-22"
       y="44" />
    <path
       class="ColorScheme-Text"
       id="path4340"
       transform="translate(0,-20)"
       d="m -3,76 c -1.108,0 -2,0.892 -2,2 v 2 h -1 v 3 h 6 v -3 h -1 v -2 c 0,-1.108 -0.892,-2 -2,-2 z m 0,1 c 0.554,0 1,0.446 1,1 v 2 h -2 v -2 c 0,-0.554 0.446,-1 1,-1 z"
       style="display:none;opacity:1;fill:currentColor;fill-opacity:1;stroke:none;stroke-width:0.1;stroke-miterlimit:4;stroke-dasharray:none;stroke-opacity:1" />
    <path
       class="ColorScheme-Text"
       id="path3"
       d="m 11.000053,17.101 c -1.1045599,0 -1.9999999,0.89543 -1.9999999,1.999999 0,1.10457 0.89544,2.000001 1.9999999,2.000001 1.10456,0 2,-0.895431 2,-2.000001 0,-1.104569 -0.89544,-1.999999 -2,-1.999999 z"
       style="display:none;fill:currentColor;fill-opacity:1;stroke-width:2"
       sodipodi:nodetypes="sssss"
       transform="translate(-22,44)" />
    <path
       class="ColorScheme-Text"
       fill-rule="evenodd"
       clip-rule="evenodd"
       d="m 7.2024621,13.349419 c -0.561477,0.286761 -0.784177,0.974399 -0.497417,1.535877 0.286761,0.561477 0.9744,0.784177 1.535877,0.497416 0.867244,-0.442926 1.7630469,-0.694678 2.7590979,-0.694678 0.975579,0 1.89994,0.262902 2.765701,0.698027 0.563341,0.283107 1.249515,0.05595 1.532623,-0.507367 0.283126,-0.563323 0.05596,-1.249497 -0.507368,-1.532623 -1.119663,-0.562714 -2.393836,-0.941161 -3.790956,-0.941161 -1.4094289,0 -2.6588689,0.362959 -3.7975579,0.944509 z"
       id="path1659-7"
       style="display:none;fill:#dddddd;fill-opacity:1;stroke:currentColor;stroke-width:1.33182;stroke-dasharray:none;stroke-opacity:1"
       sodipodi:nodetypes="sssscccss"
       transform="translate(-22,44)" />
    <path
       class="ColorScheme-Text"
       fill-rule="evenodd"
       clip-rule="evenodd"
       d="m 4.6874291,8.9088262 c -0.544487,0.317754 -0.728202,1.016808 -0.410353,1.5612948 0.317849,0.544488 1.016922,0.728203 1.56139,0.410354 1.633595,-0.9536418 2.96203,-1.4834788 5.1615729,-1.4834788 2.194063,0 3.540783,0.552706 5.168574,1.4875318 0.546714,0.313986 1.244455,0.125305 1.558423,-0.421408 C 18.040966,9.9163882 17.852228,9.2186462 17.305628,8.9046402 15.458372,7.8437492 13.717299,7.11391 11.000039,7.11391 c -2.7118179,0 -4.4363379,0.6995872 -6.3126099,1.7949162 z"
       id="path1-5"
       style="display:inline;fill:none;fill-opacity:1;stroke:url(#linearGradient4);stroke-width:1.33182;stroke-dasharray:none;stroke-opacity:1"
       sodipodi:nodetypes="cscscccsc"
       transform="translate(-22,44)" />
    <path
       class="ColorScheme-Text"
       fill-rule="evenodd"
       clip-rule="evenodd"
       d="M 1.8419531,5.779367 C 1.5027381,5.24797 1.6585611,4.542104 2.1899961,4.20287 4.7414251,2.574432 7.2273671,1.56491 11.00002,1.56491 c 3.767383,0 6.307872,1.006097 8.81931,2.644048 0.528162,0.344371 0.677136,1.051759 0.332765,1.579732 -0.344561,0.528162 -1.051759,0.677136 -1.579922,0.332765 -2.200951,-1.435514 -4.314668,-2.273421 -7.572153,-2.273421 -3.2521769,0 -5.3180049,0.834482 -7.5816269,2.279319 -0.531435,0.339234 -1.237225,0.183411 -1.57644,-0.347986 z"
       id="path2-3"
       style="display:inline;fill:none;fill-opacity:1;stroke:url(#linearGradient6);stroke-width:1.33182;stroke-dasharray:none;stroke-opacity:1"
       sodipodi:nodetypes="scscccscs"
       transform="translate(-22,44)" />
    <path
       id="path20-2"
       style="fill:url(#linearGradient2);fill-opacity:1;fill-rule:evenodd;stroke:none;stroke-width:0.0273074"
       class="ColorScheme-Text"
       d="M -13.992188 56.882812 C -14.238082 56.889894 -14.487729 56.989682 -14.679688 57.181641 L -14.697266 57.201172 C -15.081212 57.58501 -15.098782 58.194297 -14.736328 58.556641 L -12.414062 60.878906 L -14.736328 63.201172 C -15.09876 63.563517 -15.081185 64.174675 -14.697266 64.558594 L -14.679688 64.576172 C -14.295772 64.959977 -13.684586 64.977548 -13.322266 64.615234 L -11 62.292969 L -8.6777344 64.615234 C -8.3153914 64.97766 -7.7042295 64.960092 -7.3203125 64.576172 L -7.3027344 64.558594 C -6.9189264 64.17468 -6.9013539 63.563492 -7.2636719 63.201172 L -9.5859375 60.878906 L -7.2636719 58.556641 C -6.9012399 58.194213 -6.9188184 57.585088 -7.3027344 57.201172 L -7.3203125 57.181641 C -7.7041485 56.797692 -8.3153924 56.780124 -8.6777344 57.142578 L -11 59.464844 L -13.322266 57.142578 C -13.503478 56.961365 -13.746293 56.875731 -13.992188 56.882812 z " />
  </g>
</svg>
