<?xml version="1.0" encoding="UTF-8" standalone="no"?>
<svg
   id="Capa_1"
   enable-background="new 0 0 512.34 512.34"
   height="512"
   viewBox="0 0 512.34 512.34"
   width="512"
   version="1.1"
   sodipodi:docname="network-wireless.svg"
   inkscape:version="1.3.2 (091e20ef0f, 2023-11-25, custom)"
   xmlns:inkscape="http://www.inkscape.org/namespaces/inkscape"
   xmlns:sodipodi="http://sodipodi.sourceforge.net/DTD/sodipodi-0.dtd"
   xmlns:xlink="http://www.w3.org/1999/xlink"
   xmlns="http://www.w3.org/2000/svg"
   xmlns:svg="http://www.w3.org/2000/svg">
  <defs
     id="defs3">
    <linearGradient
       id="linearGradient19"
       inkscape:collect="always">
      <stop
         style="stop-color:#00f1fa;stop-opacity:1;"
         offset="0"
         id="stop19" />
      <stop
         style="stop-color:#006cff;stop-opacity:1;"
         offset="1"
         id="stop20" />
    </linearGradient>
    <linearGradient
       id="linearGradient17"
       inkscape:collect="always">
      <stop
         style="stop-color:#00f1fa;stop-opacity:1;"
         offset="0"
         id="stop17" />
      <stop
         style="stop-color:#006cff;stop-opacity:1;"
         offset="1"
         id="stop18" />
    </linearGradient>
    <linearGradient
       id="linearGradient15"
       inkscape:collect="always">
      <stop
         style="stop-color:#00f1fa;stop-opacity:1;"
         offset="0"
         id="stop15" />
      <stop
         style="stop-color:#006cff;stop-opacity:1;"
         offset="1"
         id="stop16" />
    </linearGradient>
    <linearGradient
       inkscape:collect="always"
       xlink:href="#linearGradient15"
       id="linearGradient16"
       x1="11.000053"
       y1="21.101"
       x2="21.000008"
       y2="8.5350733"
       gradientUnits="userSpaceOnUse" />
    <linearGradient
       inkscape:collect="always"
       xlink:href="#linearGradient17"
       id="linearGradient18"
       x1="11.000053"
       y1="21.101"
       x2="21.000008"
       y2="8.5350733"
       gradientUnits="userSpaceOnUse" />
    <linearGradient
       inkscape:collect="always"
       xlink:href="#linearGradient19"
       id="linearGradient20"
       x1="11.000053"
       y1="21.101"
       x2="21.000008"
       y2="8.5350733"
       gradientUnits="userSpaceOnUse" />
  </defs>
  <sodipodi:namedview
     id="namedview3"
     pagecolor="#505050"
     bordercolor="#ffffff"
     borderopacity="1"
     inkscape:showpageshadow="0"
     inkscape:pageopacity="0"
     inkscape:pagecheckerboard="1"
     inkscape:deskcolor="#505050"
     inkscape:zoom="1.3808594"
     inkscape:cx="254.18953"
     inkscape:cy="247.67185"
     inkscape:current-layer="Capa_1" />
  <linearGradient
     id="SVGID_1_"
     gradientUnits="userSpaceOnUse"
     x1="256.17"
     x2="256.17"
     y1="443.797"
     y2="68.543">
    <stop
       offset="0"
       stop-color="#fd3a84"
       id="stop1" />
    <stop
       offset="1"
       stop-color="#ffa68d"
       id="stop2" />
  </linearGradient>
  <g
     transform="matrix(23.288182,0,0,23.288182,512.34,-1024.68)"
     id="network-wireless-100-locked">
    <rect
       style="opacity:0.55;fill:none;fill-opacity:1;stroke:none;stroke-width:3.56737px;stroke-linecap:butt;stroke-linejoin:miter;stroke-miterlimit:4;stroke-dasharray:none;stroke-dashoffset:0;stroke-opacity:1"
       id="rect4330"
       width="22"
       height="22"
       x="-22"
       y="44" />
    <path
       class="ColorScheme-Text"
       id="path4340"
       transform="translate(0,-20)"
       d="m -3,76 c -1.108,0 -2,0.892 -2,2 v 2 h -1 v 3 h 6 v -3 h -1 v -2 c 0,-1.108 -0.892,-2 -2,-2 z m 0,1 c 0.554,0 1,0.446 1,1 v 2 h -2 v -2 c 0,-0.554 0.446,-1 1,-1 z"
       style="color:#dddddd;display:none;opacity:1;fill:currentColor;fill-opacity:1;stroke:none;stroke-width:0.1;stroke-miterlimit:4;stroke-dasharray:none;stroke-opacity:1" />
    <path
       class="ColorScheme-Text"
       id="path3"
       d="m 11.000053,17.101 c -1.1045599,0 -1.9999999,0.89543 -1.9999999,1.999999 0,1.10457 0.89544,2.000001 1.9999999,2.000001 1.10456,0 2,-0.895431 2,-2.000001 0,-1.104569 -0.89544,-1.999999 -2,-1.999999 z"
       style="color:#dddddd;display:inline;fill:url(#linearGradient20);fill-opacity:1;stroke-width:2"
       sodipodi:nodetypes="sssss"
       transform="translate(-22,44)" />
    <path
       class="ColorScheme-Text"
       fill-rule="evenodd"
       clip-rule="evenodd"
       d="m 7.2024621,13.349419 c -0.561477,0.286761 -0.784177,0.974399 -0.497417,1.535877 0.286761,0.561477 0.9744,0.784177 1.535877,0.497416 0.867244,-0.442926 1.7630469,-0.694678 2.7590979,-0.694678 0.975579,0 1.89994,0.262902 2.765701,0.698027 0.563341,0.283107 1.249515,0.05595 1.532623,-0.507367 0.283126,-0.563323 0.05596,-1.249497 -0.507368,-1.532623 -1.119663,-0.562714 -2.393836,-0.941161 -3.790956,-0.941161 -1.4094289,0 -2.6588689,0.362959 -3.7975579,0.944509 z"
       id="path1659-7"
       style="color:#dddddd;display:none;fill:#dddddd;fill-opacity:1;stroke:currentColor;stroke-width:1.33182;stroke-dasharray:none;stroke-opacity:1"
       sodipodi:nodetypes="sssscccss"
       transform="translate(-22,44)" />
    <path
       class="ColorScheme-Text"
       fill-rule="evenodd"
       clip-rule="evenodd"
       d="m 4.6874291,8.9088262 c -0.544487,0.317754 -0.728202,1.016808 -0.410353,1.5612948 0.317849,0.544488 1.016922,0.728203 1.56139,0.410354 1.633595,-0.9536418 2.96203,-1.4834788 5.1615729,-1.4834788 2.194063,0 3.540783,0.552706 5.168574,1.4875318 0.546714,0.313986 1.244455,0.125305 1.558423,-0.421408 C 18.040966,9.9163882 17.852228,9.2186462 17.305628,8.9046402 15.458372,7.8437492 13.717299,7.11391 11.000039,7.11391 c -2.7118179,0 -4.4363379,0.6995872 -6.3126099,1.7949162 z"
       id="path1-5"
       style="color:#dddddd;display:none;fill:#dddddd;fill-opacity:1;stroke:currentColor;stroke-width:1.33182;stroke-dasharray:none;stroke-opacity:1"
       sodipodi:nodetypes="cscscccsc"
       transform="translate(-22,44)" />
    <path
       class="ColorScheme-Text"
       fill-rule="evenodd"
       clip-rule="evenodd"
       d="M 1.8419531,5.779367 C 1.5027381,5.24797 1.6585611,4.542104 2.1899961,4.20287 4.7414251,2.574432 7.2273671,1.56491 11.00002,1.56491 c 3.767383,0 6.307872,1.006097 8.81931,2.644048 0.528162,0.344371 0.677136,1.051759 0.332765,1.579732 -0.344561,0.528162 -1.051759,0.677136 -1.579922,0.332765 -2.200951,-1.435514 -4.314668,-2.273421 -7.572153,-2.273421 -3.2521769,0 -5.3180049,0.834482 -7.5816269,2.279319 -0.531435,0.339234 -1.237225,0.183411 -1.57644,-0.347986 z"
       id="path2-3"
       style="color:#dddddd;display:none;fill:#dddddd;fill-opacity:1;stroke:currentColor;stroke-width:1.33182;stroke-dasharray:none;stroke-opacity:1"
       sodipodi:nodetypes="scscccscs"
       transform="translate(-22,44)" />
    <path
       id="path13"
       style="color:#dddddd;display:inline;fill:url(#linearGradient16);fill-opacity:1;stroke:url(#linearGradient18);stroke-width:1.33182;stroke-dasharray:none;stroke-opacity:1"
       class="ColorScheme-Text"
       d="m 11,1.5649182 c -3.772649,0 -6.2585938,1.0095259 -8.8100203,2.6379623 C 1.6585452,4.5421141 1.502735,5.2479839 1.8419496,5.7793804 2.1811643,6.3107769 2.8869312,6.4665602 3.4183656,6.1273266 5.6819854,4.682491 7.7478264,3.8480526 11,3.8480526 c 3.257482,0 5.371202,0.8378868 7.572151,2.2733993 0.528163,0.3443707 1.23538,0.1954055 1.579941,-0.332756 C 20.496463,5.2607234 20.347497,4.5532936 19.819336,4.208923 17.3079,2.5709736 14.767379,1.5649182 11,1.5649182 Z m 0,5.5490111 c -2.7118151,0 -4.4362755,0.6995406 -6.3125456,1.7948685 C 4.1429679,9.2265515 3.9592205,9.9256214 4.2770692,10.470108 4.5949179,11.014595 5.2939955,11.198341 5.838463,10.880493 7.4720563,9.9268519 8.8004594,9.3969799 11,9.3969799 c 2.194061,0 3.540797,0.5527163 5.168587,1.4875411 0.546713,0.313986 1.244488,0.125333 1.558456,-0.421379 C 18.040973,9.9164107 17.852264,9.2186073 17.305664,8.9046016 15.45841,7.8437117 13.717257,7.1139293 11,7.1139293 Z m 0,5.2909467 c -1.4094274,0 -2.6588432,0.363008 -3.797531,0.944557 -0.5614765,0.286761 -0.7841734,0.974404 -0.4974136,1.535881 0.2867607,0.561477 0.9744045,0.784175 1.535881,0.497414 C 9.1081795,14.939803 10.00395,14.688011 11,14.688011 c 0.975578,0 1.899934,0.262949 2.765694,0.698074 0.56334,0.283107 1.249584,0.05592 1.532692,-0.5074 0.283125,-0.563323 0.05593,-1.249483 -0.507401,-1.532608 C 13.671323,12.783363 12.397119,12.404876 11,12.404876 Z"
       transform="translate(-22,44)" />
    <path
       id="path15"
       style="color:#dddddd;display:none;fill:currentColor;fill-opacity:1;stroke:#dddddd;stroke-width:1.28906;stroke-dasharray:none;stroke-opacity:1"
       class="ColorScheme-Text"
       d="m 11,1.5649182 c -3.772649,0 -6.2585938,1.0095259 -8.8100203,2.6379623 C 1.6585452,4.5421141 1.502735,5.2479839 1.8419496,5.7793804 2.1811643,6.3107769 2.8869312,6.4665602 3.4183656,6.1273266 5.6819854,4.682491 7.7478264,3.8480526 11,3.8480526 c 3.257482,0 5.371202,0.8378868 7.572151,2.2733993 0.528163,0.3443707 1.23538,0.1954055 1.579941,-0.332756 C 20.496463,5.2607234 20.347497,4.5532936 19.819336,4.208923 17.3079,2.5709736 14.767379,1.5649182 11,1.5649182 Z m 0,5.5490111 c -2.7118151,0 -4.4362755,0.6995406 -6.3125456,1.7948685 C 4.1429679,9.2265515 3.9592205,9.9256214 4.2770692,10.470108 4.5949179,11.014595 5.2939955,11.198341 5.838463,10.880493 7.4720563,9.9268519 8.8004594,9.3969799 11,9.3969799 c 2.194061,0 3.540797,0.5527163 5.168587,1.4875411 0.546713,0.313986 1.244488,0.125333 1.558456,-0.421379 C 18.040973,9.9164107 17.852264,9.2186073 17.305664,8.9046016 15.45841,7.8437117 13.717257,7.1139293 11,7.1139293 Z m 0,5.2909467 c -1.4094274,0 -2.6588432,0.363008 -3.797531,0.944557 -0.5614765,0.286761 -0.7841734,0.974404 -0.4974136,1.535881 0.2867607,0.561477 0.9744045,0.784175 1.535881,0.497414 C 9.1081795,14.939803 10.00395,14.688011 11,14.688011 c 0.975578,0 1.899934,0.262949 2.765694,0.698074 0.56334,0.283107 1.249584,0.05592 1.532692,-0.5074 0.283125,-0.563323 0.05593,-1.249483 -0.507401,-1.532608 C 13.671323,12.783363 12.397119,12.404876 11,12.404876 Z"
       transform="translate(-22,44)"
       sodipodi:nodetypes="scscscccsscscscccsscssscccs" />
  </g>
</svg>
