<?xml version="1.0" encoding="UTF-8" standalone="no"?>
<svg
   width="64"
   height="64"
   viewBox="0 0 64 64"
   fill="none"
   version="1.1"
   id="svg44"
   sodipodi:docname="kate.svg"
   inkscape:version="1.2.2 (b0a8486541, 2022-12-01)"
   xmlns:inkscape="http://www.inkscape.org/namespaces/inkscape"
   xmlns:sodipodi="http://sodipodi.sourceforge.net/DTD/sodipodi-0.dtd"
   xmlns="http://www.w3.org/2000/svg"
   xmlns:svg="http://www.w3.org/2000/svg">
  <sodipodi:namedview
     id="namedview46"
     pagecolor="#ffffff"
     bordercolor="#666666"
     borderopacity="1.0"
     inkscape:pageshadow="2"
     inkscape:pageopacity="0.0"
     inkscape:pagecheckerboard="0"
     showgrid="true"
     inkscape:zoom="9.96875"
     inkscape:cx="31.347962"
     inkscape:cy="29.99373"
     inkscape:current-layer="svg44"
     inkscape:showpageshadow="2"
     inkscape:deskcolor="#d1d1d1">
    <inkscape:grid
       type="xygrid"
       id="grid1051" />
  </sodipodi:namedview>
  <g
     clip-path="url(#clip0)"
     id="g12">
    <path
       d="M 7.02155,7.85484 C 7.07722,3.74345 10.6618,0.106272 14.7003,0.0236087 26.8458,-0.0155475 38.9913,0.0279589 51.1325,0.00620551 53.1282,-0.0895096 55.1196,0.928552 56.2417,2.60792 57.3766,4.23507 57.4836,6.37561 57.171,8.28121 56.6485,9.94753 54.3488,10.5044 53.1282,9.29492 52.0832,8.37693 52.3488,6.84549 52.2845,5.60119 51.9291,5.33145 51.5822,4.99209 51.1025,5.04865 c -11.9913,-0.0087 -23.9869,-0.0174 -35.9782,0 -1.4647,-0.0261 -2.8394,1.12248 -3.0878,2.59301 -0.1285,0.9267 -0.0728,1.86645 -0.0814,2.80184 0.0172,15.1012 -0.0257,30.1981 0.0129,45.2994 -0.0471,1.7228 1.4732,3.2804 3.1734,3.2195 8.7151,0.0174 17.4345,0.0043 26.1539,0 0.7152,0.0391 1.379,-0.3698 1.803,-0.9311 2.7152,-3.3587 5.4261,-6.7174 8.1455,-10.0675 0.5525,-0.6352 0.9465,-1.427 1.0022,-2.2841 0.0899,-2.171 -0.0471,-4.3463 0.0471,-6.5217 0.0257,-1.3574 1.379,-2.4494 2.6895,-2.2841 1.1477,0.0827 2.1927,1.1095 2.2184,2.2928 0.0599,2.0405 0.0043,4.0853 0.0257,6.1302 0.0556,2.1187 -0.7195,4.2114 -2.0814,5.8125 -2.7708,3.4109 -5.5331,6.8306 -8.304,10.2415 -1.3233,1.6924 -3.4089,2.6844 -5.5374,2.6452 -8.7151,0 -17.4345,0.0131 -26.1497,-0.0087 C 12.0665,64.0396 9.06436,62.1384 7.77957,59.2843 7.09007,57.9139 6.99585,56.3433 7.00013,54.8336 7.02583,39.1711 6.97872,23.513 7.02155,7.85484 Z"
       fill="url(#paint0_linear)"
       id="path2"
       style="fill:url(#paint0_linear)" />
    <path
       d="m 17.878,11.479 c 0.6039,-0.3568 1.3276,-0.2785 2,-0.3002 7.5674,0.0261 15.1348,-0.0218 22.7021,0.0217 1.7217,-0.0609 2.9551,2.0448 2.1499,3.5719 -0.424,1.0094 -1.5332,1.5358 -2.5781,1.4488 C 34.4389,16.2125 26.7216,16.243 19.0086,16.2038 16.5461,16.33 15.6553,12.5275 17.878,11.479 Z"
       fill="url(#paint1_linear)"
       id="path4"
       style="fill:url(#paint1_linear)" />
    <path
       d="m 19.1585,22.3992 c 4.5139,-0.1523 9.0363,-0.0087 13.5545,-0.0696 1.0492,0.0304 2.2784,-0.1653 3.1177,0.6395 1.0921,0.9224 1.1135,2.8019 0.0386,3.7416 -0.7066,0.7353 -1.7816,0.657 -2.7066,0.6787 -4.4325,-0.0261 -8.8693,0.0087 -13.3018,-0.0217 -1.3405,0.1305 -2.6338,-0.9572 -2.6938,-2.332 -0.1071,-1.2182 0.7923,-2.4494 1.9914,-2.6365 z"
       fill="url(#paint2_linear)"
       id="path6"
       style="fill:url(#paint2_linear)" />
    <path
       d="m 17.9079,33.7893 c 0.8822,-0.4177 1.8886,-0.2436 2.8265,-0.2872 2.3041,0.0653 4.6167,-0.0957 6.9122,0.0827 1.713,0.3307 2.4882,2.6844 1.3447,4.007 -0.8308,1.1529 -2.3554,0.9398 -3.5802,0.9485 -2.3084,-0.0653 -4.6296,0.1044 -6.9293,-0.0827 -2.1799,-0.3785 -2.5696,-3.746 -0.5739,-4.6683 z"
       fill="url(#paint3_linear)"
       id="path8"
       style="fill:url(#paint3_linear)" />
    <path
       d="m 55.1668,14.2417 c 1.6745,-0.7614 3.7687,-0.409 5.1048,0.8701 0.9551,0.8875 1.97,1.7229 2.8223,2.7192 1.3961,1.7446 1.1392,4.5203 -0.4968,6.017 -6.925,7.035 -13.8457,14.0701 -20.7964,21.0791 -2.8565,2.8671 -6.9464,3.5806 -10.5566,5.0032 -1.0193,0.4482 -2.3341,0.5178 -3.1606,-0.3524 -0.9722,-0.8744 -0.8994,-2.358 -0.3169,-3.4326 1.6488,-3.6459 2.7066,-7.7486 5.6145,-10.6331 6.6937,-6.6914 13.4174,-13.3436 20.1154,-20.0306 0.4968,-0.4829 1.0279,-0.9572 1.6703,-1.2399 z M 37.1284,38.8622 c -1.3233,1.2791 -2.2099,2.928 -2.8565,4.6465 1.6659,-0.4916 3.2633,-1.3182 4.4667,-2.606 6.6895,-6.7653 13.3618,-13.5568 20.0298,-20.3438 -0.561,-0.5134 -1.122,-1.0268 -1.683,-1.5402 C 50.4131,25.61 43.775,32.2404 37.1284,38.8622 Z"
       fill="url(#paint4_linear)"
       id="path10"
       style="fill:url(#paint4_linear)" />
  </g>
  <defs
     id="defs42">
    <linearGradient
       id="paint0_linear"
       x1="6.9999952"
       y1="32"
       x2="57.32267"
       y2="32"
       gradientUnits="userSpaceOnUse">
      <stop
         stop-color="#e5f230"
         id="stop14" />
      <stop
         offset="0.986957"
         stop-color="#54d863"
         id="stop16" />
    </linearGradient>
    <linearGradient
       id="paint1_linear"
       x1="57.32267"
       y1="32"
       x2="6.9999952"
       y2="32"
       gradientUnits="userSpaceOnUse">
      <stop
         stop-color="#54d863"
         id="stop19" />
      <stop
         offset="0.986957"
         stop-color="#e5f230"
         id="stop21" />
    </linearGradient>
    <linearGradient
       id="paint2_linear"
       x1="57.32267"
       y1="32"
       x2="6.9999952"
       y2="32"
       gradientUnits="userSpaceOnUse">
      <stop
         stop-color="#54d863"
         id="stop24" />
      <stop
         offset="0.986957"
         stop-color="#e5f230"
         id="stop26" />
    </linearGradient>
    <linearGradient
       id="paint3_linear"
       x1="57.32267"
       y1="32"
       x2="6.9999952"
       y2="32"
       gradientUnits="userSpaceOnUse">
      <stop
         stop-color="#54d863"
         id="stop29" />
      <stop
         offset="0.986957"
         stop-color="#e5f230"
         id="stop31" />
    </linearGradient>
    <linearGradient
       id="paint4_linear"
       x1="6.9999952"
       y1="32"
       x2="57.32267"
       y2="32"
       gradientUnits="userSpaceOnUse">
      <stop
         stop-color="#e5f230"
         id="stop34" />
      <stop
         offset="0.986957"
         stop-color="#54d863"
         id="stop36" />
    </linearGradient>
    <clipPath
       id="clip0">
      <rect
         width="64"
         height="64"
         fill="white"
         id="rect39" />
    </clipPath>
  </defs>
</svg>
