<?xml version="1.0" encoding="UTF-8" standalone="no"?>
<svg
   width="252"
   height="231"
   viewBox="0 0 252 231"
   fill="none"
   version="1.1"
   id="svg7"
   sodipodi:docname="preferences-desktop-theme-applications-og-2.svg"
   inkscape:version="1.3.2 (091e20ef0f, 2023-11-25, custom)"
   xmlns:inkscape="http://www.inkscape.org/namespaces/inkscape"
   xmlns:sodipodi="http://sodipodi.sourceforge.net/DTD/sodipodi-0.dtd"
   xmlns="http://www.w3.org/2000/svg"
   xmlns:svg="http://www.w3.org/2000/svg">
  <sodipodi:namedview
     id="namedview7"
     pagecolor="#ffffff"
     bordercolor="#666666"
     borderopacity="1.0"
     inkscape:showpageshadow="2"
     inkscape:pageopacity="0.0"
     inkscape:pagecheckerboard="0"
     inkscape:deskcolor="#d1d1d1"
     inkscape:zoom="3.5887446"
     inkscape:cx="125.94934"
     inkscape:cy="115.5"
     inkscape:current-layer="svg7" />
  <path
     d="M 74.2383,86.4 H 107.93 c 1.86,0 3.369,-1.2984 3.369,-2.9 V 48.7 c 0,-1.6016 -1.509,-2.9 -3.369,-2.9 H 74.2383 c -1.8607,0 -3.3692,1.2984 -3.3692,2.9 v 34.8 c 0,1.6016 1.5085,2.9 3.3692,2.9 z m 3.3691,-34.8 h 26.9536 v 29 H 77.6074 Z M 27.0703,28.4 c 1.8607,0 3.3692,-1.2984 3.3692,-2.9 0,-1.6016 -1.5085,-2.9 -3.3692,-2.9 -1.8607,0 -3.3691,1.2984 -3.3691,2.9 0,1.6016 1.5084,2.9 3.3691,2.9 z M 121.631,11 H 13.3691 C 11.5085,11 10,12.2984 10,13.9 v 81.2 c 0,1.6016 1.5085,2.9 3.3691,2.9 H 121.631 C 123.492,98 125,96.7016 125,95.1 V 13.9 c 0,-1.6016 -1.508,-2.9 -3.369,-2.9 z m -3.369,81.2 H 16.7383 V 40 H 118.262 Z m 0,-58 H 16.7383 V 16.8 H 118.262 Z M 40.5469,28.4 c 1.8606,0 3.3691,-1.2984 3.3691,-2.9 0,-1.6016 -1.5085,-2.9 -3.3691,-2.9 -1.8607,0 -3.3692,1.2984 -3.3692,2.9 0,1.6016 1.5085,2.9 3.3692,2.9 z m 13.4765,0 c 1.8607,0 3.3692,-1.2984 3.3692,-2.9 0,-1.6016 -1.5085,-2.9 -3.3692,-2.9 -1.8606,0 -3.3691,1.2984 -3.3691,2.9 0,1.6016 1.5085,2.9 3.3691,2.9 z"
     fill="url(#paint0_linear)"
     id="path1"
     sodipodi:nodetypes="ssssssssscccccssssssssssssssccccccccccssssssssss"
     style="fill:url(#paint0_linear)" />
  <path
     d="m 167.402,203.267 h 49.512 c 2.734,0 4.951,-1.985 4.951,-4.434 v -53.2 c 0,-2.448 -2.217,-4.433 -4.951,-4.433 h -49.512 c -2.734,0 -4.951,1.985 -4.951,4.433 v 53.2 c 0,2.449 2.217,4.434 4.951,4.434 z m 4.952,-53.2 h 39.609 V 194.4 H 172.354 Z M 98.086,114.6 c 2.734,0 4.951,-1.985 4.951,-4.433 0,-2.449 -2.217,-4.434 -4.951,-4.434 -2.734,0 -4.951,1.985 -4.951,4.434 0,2.448 2.217,4.433 4.951,4.433 z M 237.049,88 H 77.9512 C 75.2168,88 73,89.985 73,92.433 v 124.134 c 0,2.448 2.2168,4.433 4.9512,4.433 H 237.049 c 2.734,0 4.951,-1.985 4.951,-4.433 V 92.433 C 242,89.985 239.783,88 237.049,88 Z m -4.951,124.133 H 82.9023 v -79.8 H 232.098 Z m 0,-88.666 H 82.9023 v -26.6 H 232.098 Z M 117.891,114.6 c 2.734,0 4.951,-1.985 4.951,-4.433 0,-2.449 -2.217,-4.434 -4.951,-4.434 -2.735,0 -4.952,1.985 -4.952,4.434 0,2.448 2.217,4.433 4.952,4.433 z m 19.804,0 c 2.735,0 4.951,-1.985 4.951,-4.433 0,-2.449 -2.216,-4.434 -4.951,-4.434 -2.734,0 -4.951,1.985 -4.951,4.434 0,2.448 2.217,4.433 4.951,4.433 z"
     fill="url(#paint1_linear)"
     stroke="url(#paint2_linear)"
     stroke-width="4"
     id="path2"
     sodipodi:nodetypes="ssssssssscccccssssssssssssssccccccccccssssssssss"
     style="stroke:url(#paint2_linear);fill:url(#paint1_linear)" />
  <defs
     id="defs7">
    <linearGradient
       id="paint0_linear"
       x1="10"
       y1="98"
       x2="125"
       y2="54.5"
       gradientUnits="userSpaceOnUse">
      <stop
         id="stop2"
         offset="0"
         style="stop-color:#00f1fa;stop-opacity:1;" />
      <stop
         offset="1"
         id="stop3"
         style="stop-color:#006cff;stop-opacity:1;" />
    </linearGradient>
    <linearGradient
       id="paint1_linear"
       x1="71"
       y1="223"
       x2="244"
       y2="154.5"
       gradientUnits="userSpaceOnUse">
      <stop
         id="stop4"
         offset="0"
         style="stop-color:#00f1fa;stop-opacity:1;" />
      <stop
         offset="1"
         id="stop5"
         style="stop-color:#006cff;stop-opacity:1;" />
    </linearGradient>
    <linearGradient
       id="paint2_linear"
       x1="71"
       y1="223"
       x2="244"
       y2="154.5"
       gradientUnits="userSpaceOnUse">
      <stop
         id="stop6"
         offset="0"
         style="stop-color:#00f1fa;stop-opacity:1;" />
      <stop
         offset="1"
         id="stop7"
         style="stop-color:#006cff;stop-opacity:1;" />
    </linearGradient>
  </defs>
</svg>
