<?xml version="1.0" encoding="UTF-8" standalone="no"?>
<svg
   width="16"
   height="16"
   viewBox="0 0 16 16"
   fill="none"
   version="1.1"
   id="svg11952"
   sodipodi:docname="document-open.svg"
   inkscape:version="1.3.2 (091e20ef0f, 2023-11-25, custom)"
   xmlns:inkscape="http://www.inkscape.org/namespaces/inkscape"
   xmlns:sodipodi="http://sodipodi.sourceforge.net/DTD/sodipodi-0.dtd"
   xmlns="http://www.w3.org/2000/svg"
   xmlns:svg="http://www.w3.org/2000/svg">
  <sodipodi:namedview
     id="namedview11954"
     pagecolor="#ffffff"
     bordercolor="#666666"
     borderopacity="1.0"
     inkscape:showpageshadow="2"
     inkscape:pageopacity="0.0"
     inkscape:pagecheckerboard="0"
     inkscape:deskcolor="#d1d1d1"
     showgrid="false"
     inkscape:zoom="14.75"
     inkscape:cx="5.7966102"
     inkscape:cy="8.0338983"
     inkscape:current-layer="svg11952" />
  <path
     d="M3 2C2.44772 2 2 2.44772 2 3V3V6V7V13V13C2 13.5523 2.44772 14 3 14H13C13.5523 14 14 13.5523 14 13V13V6V5V5C14 4.44772 13.5523 4 13 4H9.42202C9.15681 4 8.90245 3.89464 8.71492 3.70711L7.0101 2.00229C7.00883 2.00102 7.00679 2.00102 7.00552 2.00229L7.00391 2.00391C7.00246 2.00535 7 2.00433 7 2.00229V2.00229C7 2.00102 6.99898 2 6.99771 2H3V2ZM3 4C3 3.44772 3.44772 3 4 3H6.38498C6.51742 3 6.64445 3.05254 6.73819 3.1461L7.29647 3.70329C7.40608 3.81269 7.3286 4 7.17374 4H7.00229C7.00102 4 7 4.00102 7 4.00229V4.00229C7 4.00433 6.99754 4.00535 6.99609 4.00391L6.99448 4.00229C6.99321 4.00102 6.99117 4.00102 6.9899 4.00229L5.28508 5.70711C5.09755 5.89464 4.84319 6 4.57798 6H4C3.44771 6 3 5.55228 3 5V4ZM3 8C3 7.44772 3.44772 7 4 7H12C12.5523 7 13 7.44772 13 8V12C13 12.5523 12.5523 13 12 13H4C3.44772 13 3 12.5523 3 12V8Z"
     fill="url(#paint0_linear)"
     id="path11943"
     style="fill:url(#paint0_linear)" />
  <defs
     id="defs11950">
    <linearGradient
       id="paint0_linear"
       x1="3"
       y1="14"
       x2="14"
       y2="8"
       gradientUnits="userSpaceOnUse">
      <stop
         id="stop11945"
         offset="0"
         style="stop-color:#b900ff;stop-opacity:1;" />
      <stop
         offset="1"
         id="stop11947"
         style="stop-color:#6033ff;stop-opacity:1;" />
    </linearGradient>
  </defs>
</svg>
